<?xml version="1.0" encoding="utf-8"?>
<!-- Generator: Adobe Illustrator 27.9.1, SVG Export Plug-In . SVG Version: 6.00 Build 0)  -->
<svg version="1.1" id="Layer_1" xmlns="http://www.w3.org/2000/svg" xmlns:xlink="http://www.w3.org/1999/xlink" x="0px" y="0px"
	 viewBox="0 0 713 438" style="enable-background:new 0 0 713 438;" xml:space="preserve">
<style type="text/css">
	.st0{fill:#FFFFFF;}
</style>
<g>
	<path class="st0" d="M183.8,295.4c8.6-2.4,17.2-0.4,22.6,5.1l3.8,3.9l6.1-4.1l6.1-4.1l-3.2-4c-4.1-5.2-8.7-8.6-14.6-10.9
		c-18.9-7.1-38.5,0.8-47.6,19.3c-4.5,9.2-6,17.6-5.4,30.2c1.2,25.3,13,42,32.4,45.4c13.2,2.4,28.3-3.1,35.2-12.8l2.2-3l-6.2-4.1
		l-6.1-4.2l-2.6,2.5c-11.6,10.8-28.2,7.5-35.7-7.3c-4.9-9.7-5.7-25.2-1.9-36.4C171.1,304.5,178.4,296.9,183.8,295.4z"/>
	<path class="st0" d="M290.2,326.1l-13.4-45.8h-10.3c-7.3,0-10.4,0.4-10.7,1.2c-0.2,0.7-6.3,21.3-13.5,45.8s-13.3,45.3-13.6,46.2
		c-0.5,1.6,0.3,1.8,7.5,1.8h7.9l1-3.3c0.6-1.7,1.8-5.8,2.7-9l1.6-5.7l17.2,0.2l17.2,0.3l2.4,8.7l2.4,8.8h8c7.1,0,7.9-0.2,7.5-1.8
		C303.8,372.6,297.6,351.2,290.2,326.1z M278.8,342.1c-0.1,0.1-5.8,0.1-12.7,0l-12.5-0.3l6-21.8c3.3-11.9,6.3-21.7,6.7-21.7
		C266.9,298.3,279.4,341.6,278.8,342.1z"/>
	<path class="st0" d="M344.8,319.8c-13.9-7.8-18.5-11.7-18.5-15.6c0-4.6,1.5-6.6,6.5-8.4c7.6-3,18.5-1.3,28.6,4.2
		c0.6,0.4,3.9-11.4,3.9-14c0-2-8.3-5.4-16.1-6.6c-8.3-1.4-12.2-1.3-18.8,0.5c-12.7,3.4-19.1,11-19.1,22.6c0,10.8,5.9,17.6,25.5,29.3
		c14.1,8.5,18.5,12.8,18.5,18.4c0,11.5-17.3,15.2-33.4,7.2c-3.3-1.6-6.1-2.9-6.2-2.8c-1.3,2.3-5.3,14.1-4.9,14.6
		c1.1,1.8,10.2,5.3,17.4,6.8c17.3,3.3,33.3-2.4,39.3-14.1c3.2-6.3,3.6-16.3,0.9-22C365.3,333.6,357.4,326.8,344.8,319.8z"/>
	<path class="st0" d="M437.3,326.4l-13.5-46.1h-10.3c-7.3,0-10.4,0.4-10.7,1.2c-0.2,0.7-6.3,21.3-13.5,45.8s-13.3,45.3-13.6,46.2
		c-0.5,1.6,0.3,1.8,7.5,1.8c6.7,0,8-0.3,8.5-1.8c0.2-0.9,1.4-5,2.6-9l2.1-7.2l17.1,0.2l17.1,0.3l2.5,8.7l2.6,8.8h7.9
		c6.2,0,7.8-0.3,7.5-1.4C450.9,373.2,444.7,351.8,437.3,326.4z M425.9,342.1c-0.2,0.1-5.9,0.1-12.8,0l-12.5-0.3l6.1-22.2
		c3.4-12.2,6.4-21.9,6.7-21.5C414.2,299,426.3,341.7,425.9,342.1z"/>
	<path class="st0" d="M454.1,218.2c-15-9.4-15.7-10.3-27.3-32.7c-5.9-11.3-12.1-22.8-13.9-25.5c-1.8-2.6-6.9-7.6-11.3-11
		s-11.2-8.8-14.9-12c-3.8-3.2-8-6.4-9.4-7.2c-4.8-2.5-53.1-4.6-57.1-2.5c-2.2,1.2-2.5,4-0.6,5.9c0.6,0.8-1.7-0.5-5.3-2.8
		c-3.6-2.3-9.5-5.8-13.3-7.9c-6.4-3.5-6.7-3.8-6.1-6.7c0.4-1.7,3.1-5.6,6-8.8c3-3.2,6.1-7.5,6.9-9.4c1.7-4,2-9.9,0.5-10.8
		c-2.9-1.8-17.8,10.3-23.8,19.2c-2.5,3.7-4.7,6.2-4.9,5.6c-0.9-2.6,2.9-18.5,5.9-24.9c1.8-3.9,3.4-9,3.6-12.1
		c0.7-8.3-2.8-14.2-6.5-11.1c-2.2,1.8-12.5,19.7-13.7,23.9c-1.8,5.9-2.6,5.7-2.6-0.7c0-4.3,0.8-7.9,3-13c5.3-12.7,6.2-22.1,2.4-25.9
		c-2.3-2.2-3.3-1.9-7.3,2.6c-3.5,3.7-3.9,3.9-6.4,2.8c-1.5-0.7-3-1-3.3-0.6c-1.5,1.5-2.4,9.7-3,26.7L251,97.9l3.3,9.9
		c4.6,14.1,13.1,35.6,17.6,44.8c4.7,9.8,8.8,14,19,19.9c4.3,2.5,10.8,6.8,14.4,9.4c10,7.5,29.9,28,35,36.1c4.2,6.7,7,9.1,7,6
		c0-2.6-10.1-15.7-19.8-25.8c-11.8-12.3-22.2-20.8-34.2-27.9c-5-2.9-10.8-7.3-13-9.7c-4.1-4.7-11.8-21.9-20.6-45.8
		c-4.2-11.5-4.8-14.1-5.2-23c-0.4-10.1,1.1-34.1,2.2-35.2c1.3-1.4,4.5,3.2,5.5,7.8c0.6,2.8,1.1,10.3,1.1,16.7v11.7l7.5,11.4
		c7.3,11.1,7.4,11.4,5.9,14.2c-1.3,2.5-1.3,3.3,0,6.3c1.8,4.3,13.6,16.7,27.1,28.5c9.2,8.1,11.5,9.5,11.5,7c0-0.4-6.1-6.2-13.5-12.9
		c-19.8-17.8-25.4-25.4-21.2-28.8c1.3-1.1,6.6-0.2,9.4,1.6c1.9,1.2-0.6,6.1-3.5,6.8c-3,0.8-2.2,3,0.9,2.6c3-0.3,6.2-4,5.6-6.4
		c-0.5-1.6-0.3-1.6,2.5-0.2c1.6,0.9,7.6,4.4,13.1,7.8c5.6,3.4,11.8,6.8,13.7,7.6c5.4,2.1,16.9,7.9,21,10.6c3.1,2,3.6,2.9,3.2,5.3
		c-0.6,4.3,2.4,9.7,8.4,14.8c4.5,3.9,5.7,5.7,7.5,11.2c2.3,7.4,6.1,14,16.3,28.8c6.3,9.1,9.6,12.3,9.6,9.4c0-0.6-2.5-4.5-5.6-8.8
		c-11.1-15.5-20.6-33.3-16.3-30.8c0.8,0.5,3.6,2.7,6.3,4.9c4,3.4,5.9,6.2,10.6,16.1c3.2,6.6,7.4,13.9,9.4,16.2
		c4,4.6,12.2,10.1,24.4,16.2c8.7,4.4,10.2,4.8,10.2,2.8c0-0.6-4.2-3.3-9.4-6c-13.4-6.8-21.1-12-24.4-16.5c-1.5-2.2-5.2-9.1-8.1-15.3
		l-5.3-11.4l-9.6-7.8c-18.2-14.6-22.1-19.1-20.7-24.4c0.7-3,2-2.9,7.6,0.5l4.6,2.7l-2.2,2.3l-2.1,2.3l-2.8-2.2
		c-2.9-2.3-4.7-1.8-3,0.9c1.8,2.9,5.4,4.2,8,3c1.3-0.6,2.4-1.4,2.4-1.7s0.4-1.2,0.9-1.9c0.6-1,3.2,0.3,10.2,5.1
		c8.3,5.6,28.9,16.7,31.1,16.7c0.4,0,0.8-0.7,0.8-1.4c0-0.8-3.3-3.1-7.4-5.1l-7.3-3.7l-1.2-5.5c-1.2-4.9-1.8-5.8-6.9-9.6
		c-3.1-2.3-7.6-6.1-10-8.5c-5-5-8.6-6.5-20.2-8.1c-17.6-2.5-21.4-3.3-25.1-5.1c-9.6-5-6.1-5.6,22.6-4.1c27.4,1.4,24,0.2,39.5,13.1
		c4.7,3.9,10.5,8.4,13,10.1c5.8,3.8,9.9,10.1,21.6,33.2c5.2,10.3,10.9,20.3,12.6,22.3c2.7,3.1,17.6,13.6,21.3,15
		c0.9,0.4,1.5,0,1.5-0.9C459.3,222.2,456.9,220,454.1,218.2z M278.1,99.3c-0.7,3.8-1.5,7-1.8,7s-1.8-2-3.4-4.5
		c-4-6.5-3.2-11,4.6-24.8c3.4-5.9,6.5-10.7,7-10.7c1.3,0,2.1,4.9,1.4,9.6c-0.3,2.4-1.9,7.1-3.6,10.4
		C280.7,89.5,278.8,95.4,278.1,99.3z M292.5,113.6c-0.6,2-1.4,3.1-2.3,2.8c-0.8-0.2-2.6-0.6-4.1-0.9c-1.6-0.2-2.8-0.9-2.8-1.4
		c0-2.7,8.8-13.3,15.2-18.3c4-3.1,7.4-5.2,7.6-4.6c0.8,2.5-2.2,8.1-7.3,13.5C295.8,107.8,292.9,111.8,292.5,113.6z M338.1,140.7
		c0.9,0.2,4.9,0.7,8.7,1.1c13.5,1.3,18.2,2.9,23.8,8.2c2.9,2.7,7.3,6.4,9.9,8.2c3.5,2.5,4.8,4.2,5.6,7.2c0.5,2.1,0.6,3.9,0.2,3.9
		c-0.8,0-3.6-1.9-17.7-11.6c-9.6-6.8-15.4-9.7-18.1-9.2c-1.5,0.2-14.2-6.8-14.2-7.9C336.3,140.4,337.1,140.4,338.1,140.7z"/>
	<path class="st0" d="M505.5,284l-6.7-3.2l-19.7-0.3l-19.8-0.4v95.4l19.8-0.4l19.7-0.3l6.5-3.2c12-5.9,18.9-13.6,23.2-26.1
		c3-8.9,3.2-25.9,0.4-34.2C524.4,298,517.1,289.5,505.5,284z M498.7,357.4c-3.9,1.8-7,2.4-14.6,2.7l-9.8,0.4v-65.2h8.3
		c10.9,0,17.2,2,23.1,7.1c5.7,5,8.1,9.5,9.6,17.9C518.2,336.5,511.7,351,498.7,357.4z"/>
	<polygon class="st0" points="560.9,280.3 560.9,323.8 535.6,279.2 522.5,286.6 560.9,354.3 560.9,375.3 575.9,375.3 575.9,280.3 	
		"/>
</g>
</svg>
